<?xml version="1.0" encoding="utf-8"?>
<!-- Generator: Adobe Illustrator 16.0.0, SVG Export Plug-In . SVG Version: 6.00 Build 0)  -->
<!DOCTYPE svg PUBLIC "-//W3C//DTD SVG 1.1//EN" "http://www.w3.org/Graphics/SVG/1.1/DTD/svg11.dtd">
<svg version="1.1" id="Layer_1" xmlns="http://www.w3.org/2000/svg" xmlns:xlink="http://www.w3.org/1999/xlink" x="0px" y="0px"
	 width="617.247px" height="129.56px" viewBox="0 0 617.247 129.56" enable-background="new 0 0 617.247 129.56"
	 xml:space="preserve">
<g>
	<g>
		<path fill="#63B132" d="M26.653,55.803c10.424,0,21.094,2.355,31.718,7.004c14.104,6.171,27.336,9.3,39.324,9.3
			c11.565,0,22.19-2.931,31.757-8.715c-0.344-16.113-6.646-32.123-18.942-44.418c-25.3-25.298-66.317-25.298-91.619,0
			C7.149,30.717,0.865,45.848,0.022,61.221C7.068,58.237,16.053,55.803,26.653,55.803z"/>
		<path fill="#90B4FE" d="M58.387,89.648c14.104,6.171,27.336,9.3,39.324,9.3c8.879,0,17.202-1.735,24.921-5.154
			c1.34-2.678,2.48-5.432,3.427-8.236c-8.739,4.037-18.199,6.089-28.319,6.089h-0.007c-12.847,0-26.92-3.309-41.832-9.83
			c-9.839-4.305-19.682-6.49-29.25-6.49c-9.94,0-18.327,2.361-24.793,5.177c0.514,2.065,1.134,4.11,1.854,6.127
			c6.406-2.29,14.119-3.985,22.957-3.985C37.093,82.645,47.763,85,58.387,89.648z"/>
		<path fill="#90B4FE" d="M58.387,76.133c14.104,6.171,27.336,9.298,39.324,9.298c11.065,0,21.269-2.688,30.51-7.987
			c0.445-2.244,0.785-4.505,0.991-6.776c-9.606,5.076-20.131,7.653-31.489,7.653h-0.005c-12.847,0-26.921-3.306-41.833-9.83
			c-9.839-4.305-19.681-6.487-29.25-6.487C15.718,62.003,6.682,64.85,0,68.019c0.104,2.099,0.318,4.194,0.625,6.279
			c6.954-2.87,15.738-5.17,26.044-5.17C37.093,69.128,47.763,71.484,58.387,76.133z"/>
		<path fill="#90B4FE" d="M97.733,118.482c-12.847,0-26.92-3.308-41.832-9.833c-9.839-4.305-19.682-6.487-29.25-6.487
			c-4.99,0-9.581,0.602-13.742,1.549c1.806,2.398,3.797,4.7,5.979,6.883c22.348,22.347,56.952,24.94,82.163,7.811
			c-1.097,0.052-2.2,0.078-3.313,0.078H97.733z"/>
		<path fill="#90B4FE" d="M117.493,102.33c-6.266,1.879-12.856,2.832-19.753,2.832h-0.007c-12.847,0-26.92-3.309-41.832-9.83
			c-9.839-4.306-19.682-6.487-29.25-6.487c-7.904,0-14.818,1.494-20.571,3.522c0.939,1.998,1.979,3.958,3.135,5.875
			c5.177-1.376,11.014-2.279,17.454-2.279c10.423,0,21.093,2.355,31.717,7.006c14.104,6.168,27.336,9.298,39.324,9.298
			c4.215,0,8.305-0.39,12.266-1.164c0.176-0.174,0.359-0.333,0.533-0.509C113.109,107.997,115.429,105.228,117.493,102.33z"/>
		<path fill="#5881D8" d="M55.902,81.816c14.911,6.521,28.984,9.83,41.832,9.83h0.007c10.12,0,19.58-2.052,28.319-6.089
			c0.899-2.664,1.619-5.374,2.162-8.114c-9.242,5.299-19.445,7.987-30.51,7.987c-11.988,0-25.22-3.127-39.324-9.298
			c-10.624-4.648-21.294-7.005-31.717-7.005c-10.306,0-19.09,2.3-26.044,5.17c0.309,2.084,0.723,4.153,1.233,6.205
			c6.467-2.815,14.853-5.177,24.793-5.177C36.22,75.326,46.063,77.512,55.902,81.816z"/>
		<path fill="#5881D8" d="M55.902,95.332c14.911,6.521,28.984,9.83,41.832,9.83h0.007c6.897,0,13.487-0.953,19.753-2.832
			c1.951-2.737,3.665-5.591,5.139-8.536c-7.719,3.419-16.042,5.154-24.921,5.154c-11.988,0-25.22-3.129-39.324-9.3
			C47.763,85,37.093,82.645,26.67,82.645c-8.837,0-16.551,1.695-22.957,3.985c0.693,1.941,1.481,3.853,2.368,5.737
			c5.753-2.028,12.667-3.522,20.571-3.522C36.22,88.845,46.063,91.026,55.902,95.332z"/>
		<path fill="#5881D8" d="M58.387,102.969c-10.624-4.65-21.294-7.006-31.717-7.006c-6.44,0-12.277,0.903-17.454,2.279
			c1.129,1.868,2.358,3.698,3.694,5.469c4.161-0.947,8.751-1.549,13.742-1.549c9.568,0,19.411,2.183,29.25,6.487
			c14.911,6.525,28.984,9.833,41.832,9.833h0.007c1.112,0,2.216-0.026,3.313-0.078c3.134-2.131,6.123-4.563,8.925-7.302
			c-3.961,0.774-8.051,1.164-12.266,1.164C85.723,112.267,72.492,109.137,58.387,102.969z"/>
	</g>
	<g>
		<g>
			<path fill="#63B132" d="M233.587,22.89c0.529,0.309,0.971,0.685,1.324,1.125c0.353,0.442,0.53,0.972,0.53,1.59
				c0,0.486-0.132,0.992-0.398,1.523l-6.425,10.927c-0.751,1.017-1.546,1.524-2.384,1.524c-0.265,0-0.574-0.056-0.927-0.167
				c-0.354-0.11-0.707-0.275-1.06-0.497c-2.78-1.986-5.761-3.532-8.94-4.635c-3.18-1.104-6.558-1.656-10.134-1.656
				c-4.502,0-8.633,0.85-12.384,2.549c-3.754,1.701-6.999,4.007-9.736,6.922c-2.739,2.913-4.868,6.335-6.391,10.265
				c-1.524,3.93-2.285,8.146-2.285,12.649c0,4.462,0.761,8.643,2.285,12.552c1.523,3.907,3.652,7.318,6.391,10.231
				c2.737,2.916,5.982,5.212,9.736,6.888c3.751,1.679,7.881,2.516,12.384,2.516c3.576,0,6.988-0.55,10.232-1.654
				c3.245-1.103,6.237-2.65,8.974-4.636c0.353-0.265,0.717-0.44,1.094-0.53c0.374-0.09,0.694-0.154,0.96-0.197
				c0.75,0,1.523,0.487,2.317,1.456l6.558,11.06c0.264,0.528,0.396,1.016,0.396,1.457c0,0.62-0.188,1.126-0.563,1.524
				c-0.375,0.396-0.806,0.774-1.292,1.126c-4.151,2.781-8.621,4.934-13.412,6.455c-4.791,1.526-9.834,2.285-15.133,2.285
				c-4.68,0-9.173-0.596-13.478-1.787c-4.305-1.191-8.335-2.892-12.086-5.101c-3.753-2.204-7.165-4.844-10.233-7.911
				c-3.07-3.07-5.707-6.471-7.915-10.202c-2.208-3.73-3.907-7.749-5.099-12.054c-1.191-4.305-1.789-8.796-1.789-13.478
				c0-4.678,0.597-9.172,1.789-13.478c1.192-4.305,2.891-8.344,5.099-12.12c2.208-3.774,4.845-7.208,7.915-10.298
				c3.068-3.09,6.479-5.729,10.233-7.915c3.751-2.185,7.781-3.885,12.086-5.1c4.305-1.214,8.797-1.821,13.478-1.821
				c5.253,0,10.243,0.739,14.968,2.219S229.437,20.108,233.587,22.89z"/>
			<path fill="#63B132" d="M249.481,65.011c0-4.635,0.596-9.116,1.789-13.443c1.192-4.327,2.891-8.368,5.099-12.12
				s4.845-7.175,7.916-10.265c3.067-3.09,6.479-5.729,10.231-7.915c3.752-2.185,7.783-3.885,12.087-5.1s8.798-1.821,13.478-1.821
				c4.637,0,9.106,0.606,13.411,1.821c4.306,1.214,8.334,2.915,12.089,5.1c3.753,2.186,7.175,4.825,10.264,7.915
				c3.09,3.09,5.729,6.513,7.914,10.265c2.188,3.752,3.886,7.793,5.101,12.12c1.214,4.328,1.819,8.832,1.819,13.51
				c0,4.683-0.605,9.163-1.819,13.444c-1.215,4.283-2.913,8.301-5.101,12.053c-2.185,3.756-4.824,7.164-7.914,10.234
				c-3.089,3.07-6.511,5.696-10.264,7.882c-3.755,2.185-7.783,3.874-12.089,5.065c-4.305,1.191-8.797,1.787-13.478,1.787
				c-4.68,0-9.172-0.596-13.478-1.787c-4.305-1.191-8.335-2.892-12.087-5.101c-3.753-2.204-7.164-4.844-10.231-7.911
				c-3.07-3.07-5.697-6.471-7.882-10.202c-2.186-3.73-3.874-7.749-5.066-12.054C250.077,74.184,249.481,69.692,249.481,65.011z
				 M268.621,64.88c0,4.459,0.806,8.633,2.418,12.515c1.611,3.888,3.819,7.267,6.622,10.137c2.804,2.87,6.115,5.145,9.935,6.82
				c3.819,1.679,7.958,2.515,12.417,2.515c4.415,0,8.533-0.836,12.352-2.515c3.82-1.676,7.143-3.95,9.969-6.82
				c2.824-2.87,5.044-6.249,6.655-10.137c1.61-3.882,2.417-8.056,2.417-12.515c0-4.416-0.807-8.566-2.417-12.452
				c-1.611-3.885-3.831-7.273-6.655-10.167c-2.826-2.892-6.148-5.177-9.969-6.855c-3.819-1.677-7.937-2.516-12.352-2.516
				c-4.46,0-8.599,0.839-12.417,2.516c-3.82,1.679-7.131,3.964-9.935,6.855c-2.803,2.893-5.011,6.281-6.622,10.167
				C269.427,56.313,268.621,60.464,268.621,64.88z"/>
			<path fill="#63B132" d="M353.922,111.639c0.222-0.883,0.477-1.7,0.764-2.453c0.287-0.75,0.541-1.435,0.764-2.053l35.694-88.879
				c0.136-0.484,0.498-1.026,1.094-1.623c0.596-0.596,1.402-0.894,2.418-0.894h10.662c1.059,0,1.821,0.266,2.284,0.795
				c0.464,0.529,0.805,0.994,1.026,1.39l2.188,5.166l34.97,87.489c0,0.133,0.032,0.362,0.098,0.696c0.064,0.33,0.1,0.605,0.1,0.825
				c0,1.327-0.972,1.987-2.916,1.987h-13.044c-0.975,0-1.722-0.197-2.253-0.596c-0.53-0.396-0.972-1.013-1.326-1.852l-1.191-3.049
				c-0.84-2.117-1.679-4.24-2.518-6.357c-0.84-2.119-1.654-4.261-2.448-6.425H379.42c-1.147,3.09-2.263,5.995-3.344,8.71
				c-1.08,2.713-1.998,5.09-2.748,7.121c-0.617,1.633-1.765,2.447-3.443,2.447H356.64c-0.839,0-1.513-0.151-2.02-0.46
				c-0.509-0.309-0.764-0.774-0.764-1.392C353.856,111.969,353.879,111.769,353.922,111.639z M400.019,40.97
				c-2.383,6.093-4.757,12.408-7.12,18.941c-2.361,6.536-4.733,12.827-7.118,18.875h28.214L400.019,40.97z"/>
			<path fill="#63B132" d="M516.051,41.964c-0.573,0-1.102-0.144-1.589-0.431c-0.487-0.287-1.037-0.672-1.657-1.159l-0.13-0.066
				c-0.839-0.838-1.922-1.765-3.246-2.782c-1.324-1.015-2.805-1.964-4.438-2.848c-1.636-0.883-3.39-1.633-5.263-2.251
				c-1.879-0.619-3.788-0.927-5.729-0.927c-2.475,0-4.662,0.276-6.558,0.827c-1.9,0.554-3.489,1.304-4.771,2.252
				c-1.28,0.951-2.252,2.064-2.913,3.344c-0.66,1.282-0.993,2.649-0.993,4.107c0,1.589,0.495,2.979,1.491,4.172
				c0.991,1.193,2.34,2.251,4.04,3.179s3.652,1.779,5.858,2.55c2.209,0.773,4.527,1.535,6.956,2.285
				c2.78,0.839,5.542,1.745,8.279,2.716c2.737,0.97,5.353,2.064,7.849,3.277c2.49,1.215,4.822,2.561,6.985,4.041
				c2.163,1.48,4.028,3.179,5.599,5.1c1.564,1.921,2.803,4.063,3.707,6.426c0.906,2.361,1.355,5.02,1.355,7.979
				c0,4.811-0.969,9.161-2.913,13.047c-1.943,3.885-4.624,7.207-8.046,9.969c-3.423,2.759-7.44,4.879-12.054,6.357
				c-4.613,1.478-9.568,2.22-14.869,2.22c-3.4,0-6.776-0.4-10.132-1.194c-3.356-0.793-6.578-1.919-9.671-3.376
				c-3.092-1.459-6.016-3.214-8.774-5.269c-2.759-2.052-5.223-4.359-7.383-6.92v0.067l-0.136-0.266
				c-0.97-1.102-1.457-2.119-1.457-3.046c0-0.487,0.136-0.947,0.401-1.392c0.263-0.441,0.66-0.926,1.191-1.456l2.185-2.188
				c0.663-0.571,1.367-1.213,2.12-1.917c0.747-0.71,1.5-1.349,2.252-1.923c0.748-0.573,1.446-1.061,2.085-1.456
				c0.639-0.398,1.159-0.596,1.554-0.596c0.62,0,1.194,0.197,1.723,0.596c0.53,0.396,0.975,0.771,1.326,1.126l0.266,0.266h-0.065
				c1.544,1.456,3.276,2.848,5.198,4.169c1.92,1.327,3.894,2.508,5.927,3.544c2.031,1.037,4.051,1.855,6.06,2.45
				c2.009,0.596,3.896,0.894,5.661,0.894c2.432,0,4.706-0.309,6.823-0.926c2.119-0.617,3.952-1.489,5.496-2.615
				c1.548-1.126,2.761-2.485,3.644-4.072c0.883-1.592,1.327-3.356,1.327-5.301c0-1.941-0.577-3.606-1.723-4.998
				c-1.15-1.392-2.65-2.604-4.505-3.645c-1.854-1.036-3.942-1.93-6.26-2.68c-2.317-0.753-4.646-1.457-6.985-2.123
				c-5.388-1.63-10.101-3.397-14.141-5.297c-4.042-1.898-7.407-4.029-10.102-6.391c-2.691-2.361-4.711-5.01-6.059-7.948
				c-1.349-2.935-2.021-6.235-2.021-9.901c0-4.106,0.829-7.848,2.485-11.225c1.654-3.377,4.008-6.269,7.051-8.676
				c3.049-2.407,6.714-4.283,10.997-5.63c4.281-1.345,9.07-2.02,14.371-2.02c4.019,0,8.101,0.629,12.251,1.887
				c4.151,1.259,7.99,2.992,11.526,5.199c1.059,0.662,2.139,1.414,3.243,2.251c1.104,0.839,2.12,1.689,3.049,2.55
				c0.926,0.861,1.687,1.7,2.282,2.517c0.599,0.818,0.896,1.512,0.896,2.086c0,0.529-0.136,1.071-0.401,1.623
				c-0.263,0.553-0.596,1.049-0.99,1.489l-1.987,2.12v-0.066c-0.664,0.707-1.349,1.435-2.053,2.186
				c-0.709,0.751-1.413,1.423-2.12,2.02c-0.706,0.596-1.348,1.092-1.919,1.49C516.934,41.765,516.449,41.964,516.051,41.964z"/>
			<path fill="#63B132" d="M541.281,18.651c0-0.882,0.287-1.59,0.861-2.12s1.305-0.795,2.188-0.795h69.674
				c0.793,0,1.511,0.244,2.149,0.729c0.642,0.486,1.007,1.215,1.094,2.186v11.589c0,0.884-0.276,1.656-0.828,2.319
				c-0.553,0.662-1.356,0.992-2.415,0.992h-25.169v77.488c0,0.796-0.276,1.503-0.828,2.12c-0.553,0.617-1.313,0.926-2.285,0.926
				h-13.044c-0.797,0-1.517-0.287-2.155-0.861c-0.64-0.573-0.959-1.299-0.959-2.185V33.552H544.33c-0.883,0-1.613-0.274-2.188-0.827
				c-0.574-0.552-0.861-1.379-0.861-2.484V18.651z"/>
		</g>
	</g>
</g>
</svg>
