<?xml version="1.0" encoding="utf-8"?>
<!-- Generator: Adobe Illustrator 16.0.0, SVG Export Plug-In . SVG Version: 6.00 Build 0)  -->
<!DOCTYPE svg PUBLIC "-//W3C//DTD SVG 1.1//EN" "http://www.w3.org/Graphics/SVG/1.1/DTD/svg11.dtd">
<svg version="1.1" id="Layer_1" xmlns="http://www.w3.org/2000/svg" xmlns:xlink="http://www.w3.org/1999/xlink" x="0px" y="0px"
	 width="247.487px" height="247.694px" viewBox="0 0 247.487 247.694" enable-background="new 0 0 247.487 247.694"
	 xml:space="preserve">
<g>
	<path fill="#63B132" d="M50.956,106.684c19.928,0,40.327,4.504,60.638,13.391c26.966,11.799,52.261,17.781,75.182,17.781
		c22.11,0,42.423-5.603,60.712-16.661c-0.657-30.807-12.705-61.412-36.214-84.921c-48.369-48.364-126.786-48.364-175.156,0
		C13.668,58.725,1.654,87.652,0.043,117.042C13.511,111.336,30.689,106.684,50.956,106.684z"/>
	<path fill="#90B4FE" d="M111.626,171.391c26.963,11.798,52.261,17.779,75.18,17.779c16.975,0,32.886-3.318,47.643-9.854
		c2.562-5.118,4.742-10.384,6.554-15.746c-16.708,7.719-34.793,11.641-54.142,11.641h-0.013c-24.563,0-51.466-6.325-79.976-18.792
		c-18.808-8.231-37.627-12.409-55.918-12.409c-19.004,0-35.038,4.515-47.401,9.897c0.984,3.948,2.169,7.858,3.547,11.714
		c12.246-4.378,26.993-7.62,43.887-7.62C70.914,158,91.313,162.504,111.626,171.391z"/>
	<path fill="#90B4FE" d="M111.626,145.552c26.963,11.797,52.261,17.775,75.18,17.775c21.154,0,40.66-5.141,58.329-15.271
		c0.852-4.291,1.501-8.612,1.893-12.956c-18.363,9.705-38.485,14.633-60.199,14.633h-0.011c-24.559,0-51.468-6.32-79.975-18.793
		c-18.81-8.23-37.626-12.403-55.92-12.403c-20.873,0-38.146,5.442-50.922,11.501c0.2,4.013,0.609,8.019,1.197,12.005
		c13.293-5.487,30.088-9.884,49.791-9.884C70.914,132.159,91.313,136.664,111.626,145.552z"/>
	<path fill="#90B4FE" d="M186.848,226.516c-24.563,0-51.466-6.324-79.976-18.799c-18.808-8.229-37.627-12.402-55.918-12.402
		c-9.541,0-18.317,1.149-26.271,2.96c3.451,4.587,7.259,8.986,11.43,13.159c42.726,42.724,108.884,47.682,157.08,14.934
		c-2.097,0.099-4.206,0.148-6.333,0.148H186.848z"/>
	<path fill="#90B4FE" d="M224.624,195.635c-11.978,3.593-24.577,5.414-37.764,5.414h-0.013c-24.563,0-51.466-6.325-79.976-18.792
		c-18.808-8.232-37.627-12.403-55.918-12.403c-15.111,0-28.328,2.857-39.328,6.734c1.795,3.82,3.782,7.567,5.993,11.232
		c9.898-2.632,21.055-4.358,33.368-4.358c19.927,0,40.326,4.504,60.639,13.395c26.963,11.791,52.261,17.775,75.18,17.775
		c8.059,0,15.878-0.744,23.45-2.225c0.336-0.333,0.687-0.638,1.02-0.974C216.241,206.47,220.678,201.175,224.624,195.635z"/>
	<path fill="#5881D8" d="M106.872,156.418c28.51,12.467,55.412,18.792,79.976,18.792h0.013c19.349,0,37.434-3.922,54.142-11.641
		c1.717-5.094,3.095-10.273,4.133-15.513c-17.669,10.13-37.175,15.271-58.329,15.271c-22.919,0-48.217-5.979-75.18-17.775
		c-20.313-8.888-40.712-13.393-60.639-13.393c-19.702,0-36.498,4.396-49.791,9.884c0.59,3.984,1.381,7.94,2.356,11.863
		c12.363-5.383,28.397-9.897,47.401-9.897C69.245,144.009,88.064,148.187,106.872,156.418z"/>
	<path fill="#5881D8" d="M106.872,182.257c28.51,12.467,55.412,18.792,79.976,18.792h0.013c13.187,0,25.786-1.821,37.764-5.414
		c3.73-5.232,7.007-10.688,9.824-16.319c-14.757,6.536-30.668,9.854-47.643,9.854c-22.919,0-48.217-5.981-75.18-17.779
		C91.313,162.504,70.914,158,50.987,158c-16.894,0-31.642,3.242-43.887,7.62c1.324,3.711,2.831,7.364,4.526,10.968
		c11-3.877,24.217-6.734,39.328-6.734C69.245,169.854,88.064,174.024,106.872,182.257z"/>
	<path fill="#5881D8" d="M111.626,196.856c-20.313-8.891-40.712-13.395-60.639-13.395c-12.313,0-23.47,1.727-33.368,4.358
		c2.158,3.572,4.508,7.07,7.064,10.454c7.954-1.811,16.73-2.96,26.271-2.96c18.291,0,37.11,4.173,55.918,12.402
		c28.51,12.475,55.412,18.799,79.976,18.799h0.013c2.127,0,4.236-0.05,6.333-0.148c5.991-4.075,11.704-8.725,17.063-13.96
		c-7.572,1.48-15.392,2.225-23.45,2.225C163.887,214.632,138.589,208.647,111.626,196.856z"/>
</g>
</svg>
