<?xml version="1.0" encoding="utf-8"?>
<!-- Generator: Adobe Illustrator 16.0.0, SVG Export Plug-In . SVG Version: 6.00 Build 0)  -->
<!DOCTYPE svg PUBLIC "-//W3C//DTD SVG 1.1//EN" "http://www.w3.org/Graphics/SVG/1.1/DTD/svg11.dtd">
<svg version="1.1" id="Layer_1" xmlns="http://www.w3.org/2000/svg" xmlns:xlink="http://www.w3.org/1999/xlink" x="0px" y="0px"
	 width="281.945px" height="276.211px" viewBox="0 0 281.945 276.211" enable-background="new 0 0 281.945 276.211"
	 xml:space="preserve">
<g>
	<g>
		<path fill="#63B132" d="M83.302,84.527c15.79,0,31.952,3.568,48.044,10.609c21.365,9.349,41.407,14.089,59.567,14.089
			c17.519,0,33.612-4.439,48.104-13.201c-0.521-24.408-10.066-48.658-28.693-67.284C172-9.58,109.869-9.58,71.544,28.74
			C53.758,46.528,44.239,69.448,42.962,92.734C53.633,88.214,67.244,84.527,83.302,84.527z"/>
		<path fill="#90B4FE" d="M131.372,135.796c21.363,9.348,41.407,14.087,59.566,14.087c13.449,0,26.056-2.629,37.748-7.808
			c2.029-4.056,3.757-8.228,5.192-12.477c-13.238,6.116-27.567,9.224-42.897,9.224h-0.01c-19.462,0-40.777-5.012-63.366-14.89
			c-14.902-6.521-29.813-9.832-44.305-9.832c-15.058,0-27.761,3.577-37.557,7.842c0.78,3.129,1.719,6.227,2.811,9.281
			c9.703-3.469,21.387-6.037,34.773-6.037C99.115,125.187,115.277,128.755,131.372,135.796z"/>
		<path fill="#90B4FE" d="M131.372,115.323c21.363,9.347,41.407,14.084,59.566,14.084c16.761,0,32.216-4.073,46.215-12.1
			c0.675-3.399,1.189-6.823,1.5-10.265c-14.55,7.689-30.493,11.594-47.697,11.594h-0.009c-19.458,0-40.778-5.008-63.365-14.891
			c-14.903-6.521-29.812-9.827-44.307-9.827c-16.538,0-30.224,4.313-40.347,9.112c0.158,3.18,0.482,6.354,0.948,9.512
			c10.532-4.348,23.84-7.831,39.45-7.831C99.115,104.712,115.277,108.281,131.372,115.323z"/>
		<path fill="#90B4FE" d="M190.971,179.473c-19.462,0-40.777-5.011-63.366-14.895c-14.902-6.521-29.813-9.827-44.305-9.827
			c-7.559,0-14.513,0.911-20.815,2.346c2.734,3.634,5.751,7.12,9.056,10.426c33.853,33.851,86.271,37.779,124.457,11.832
			c-1.661,0.078-3.332,0.118-5.018,0.118H190.971z"/>
		<path fill="#90B4FE" d="M220.902,155.005c-9.49,2.847-19.473,4.29-29.921,4.29h-0.01c-19.462,0-40.777-5.012-63.366-14.89
			c-14.902-6.522-29.813-9.827-44.305-9.827c-11.973,0-22.445,2.264-31.161,5.336c1.423,3.026,2.997,5.995,4.749,8.899
			c7.843-2.085,16.683-3.453,26.438-3.453c15.788,0,31.951,3.568,48.045,10.612c21.363,9.343,41.407,14.084,59.566,14.084
			c6.385,0,12.58-0.59,18.58-1.763c0.266-0.264,0.544-0.505,0.808-0.771C214.26,163.59,217.775,159.395,220.902,155.005z"/>
		<path fill="#5881D8" d="M127.605,123.933c22.589,9.878,43.904,14.89,63.366,14.89h0.01c15.33,0,29.659-3.107,42.897-9.224
			c1.36-4.035,2.452-8.14,3.274-12.291c-13.999,8.026-29.454,12.1-46.215,12.1c-18.159,0-38.203-4.737-59.566-14.084
			c-16.094-7.042-32.257-10.611-48.045-10.611c-15.61,0-28.918,3.483-39.45,7.831c0.467,3.157,1.095,6.292,1.867,9.399
			c9.796-4.265,22.5-7.842,37.557-7.842C97.792,114.101,112.703,117.411,127.605,123.933z"/>
		<path fill="#5881D8" d="M127.605,144.405c22.589,9.878,43.904,14.89,63.366,14.89h0.01c10.448,0,20.431-1.443,29.921-4.29
			c2.956-4.146,5.552-8.469,7.784-12.93c-11.692,5.179-24.299,7.808-37.748,7.808c-18.159,0-38.203-4.739-59.566-14.087
			c-16.094-7.041-32.257-10.609-48.045-10.609c-13.386,0-25.07,2.568-34.773,6.037c1.049,2.94,2.243,5.835,3.586,8.69
			c8.716-3.072,19.188-5.336,31.161-5.336C97.792,134.578,112.703,137.883,127.605,144.405z"/>
		<path fill="#5881D8" d="M131.372,155.973c-16.094-7.044-32.257-10.612-48.045-10.612c-9.756,0-18.596,1.368-26.438,3.453
			c1.71,2.83,3.572,5.602,5.597,8.283c6.302-1.435,13.256-2.346,20.815-2.346c14.492,0,29.403,3.307,44.305,9.827
			c22.589,9.884,43.904,14.895,63.366,14.895h0.01c1.686,0,3.356-0.04,5.018-0.118c4.747-3.229,9.273-6.912,13.52-11.061
			c-6,1.173-12.195,1.763-18.58,1.763C172.779,170.057,152.735,165.315,131.372,155.973z"/>
	</g>
	<g>
		<g>
			<path fill="#63B132" d="M48.083,219.734c0.322,0.188,0.592,0.418,0.805,0.687c0.216,0.27,0.325,0.592,0.325,0.969
				c0,0.296-0.083,0.604-0.242,0.928l-3.917,6.661c-0.458,0.62-0.944,0.929-1.453,0.929c-0.163,0-0.349-0.033-0.565-0.101
				s-0.432-0.168-0.648-0.305c-1.692-1.21-3.512-2.152-5.45-2.823c-1.938-0.674-3.997-1.009-6.177-1.009
				c-2.744,0-5.262,0.518-7.547,1.553c-2.289,1.037-4.267,2.442-5.935,4.219c-1.67,1.776-2.967,3.861-3.896,6.258
				c-0.929,2.395-1.392,4.966-1.392,7.71c0,2.72,0.463,5.269,1.392,7.65c0.929,2.383,2.227,4.461,3.896,6.236
				c1.668,1.778,3.646,3.178,5.935,4.2c2.285,1.021,4.803,1.533,7.547,1.533c2.181,0,4.26-0.335,6.24-1.009
				c1.976-0.671,3.801-1.615,5.47-2.825c0.213-0.163,0.435-0.27,0.666-0.324c0.228-0.055,0.423-0.093,0.586-0.119
				c0.456,0,0.929,0.296,1.411,0.886l3.997,6.742c0.163,0.321,0.243,0.618,0.243,0.888c0,0.379-0.116,0.687-0.343,0.931
				c-0.228,0.241-0.491,0.471-0.787,0.687c-2.53,1.695-5.254,3.006-8.174,3.935s-5.997,1.392-9.226,1.392
				c-2.852,0-5.592-0.363-8.214-1.088c-2.625-0.727-5.082-1.764-7.368-3.109c-2.287-1.345-4.367-2.953-6.237-4.823
				c-1.871-1.871-3.479-3.944-4.825-6.219c-1.346-2.273-2.381-4.723-3.108-7.347C0.364,251,0,248.264,0,245.409
				c0-2.851,0.364-5.591,1.09-8.215s1.762-5.086,3.108-7.388s2.954-4.395,4.825-6.277c1.87-1.884,3.95-3.493,6.237-4.824
				c2.287-1.333,4.744-2.37,7.368-3.109c2.623-0.739,5.362-1.109,8.214-1.109c3.203,0,6.244,0.451,9.125,1.353
				C42.847,216.741,45.551,218.038,48.083,219.734z"/>
			<path fill="#63B132" d="M57.77,245.409c0-2.826,0.364-5.557,1.092-8.194c0.725-2.638,1.76-5.102,3.106-7.389
				c1.346-2.285,2.956-4.373,4.825-6.257s3.95-3.491,6.237-4.824c2.287-1.333,4.745-2.368,7.37-3.107
				c2.621-0.741,5.361-1.11,8.213-1.11c2.828,0,5.553,0.369,8.177,1.11c2.624,0.739,5.077,1.774,7.367,3.107
				c2.287,1.333,4.375,2.94,6.257,4.824c1.884,1.884,3.491,3.972,4.825,6.257c1.331,2.287,2.367,4.751,3.109,7.389
				c0.737,2.638,1.106,5.384,1.106,8.235c0,2.854-0.37,5.586-1.106,8.195c-0.743,2.61-1.778,5.059-3.109,7.346
				c-1.334,2.29-2.941,4.367-4.825,6.238c-1.882,1.871-3.971,3.473-6.257,4.805c-2.29,1.331-4.743,2.362-7.367,3.089
				c-2.625,0.725-5.364,1.088-8.216,1.088s-5.592-0.363-8.216-1.088c-2.624-0.727-5.083-1.764-7.367-3.109
				c-2.29-1.345-4.37-2.953-6.237-4.823c-1.873-1.871-3.473-3.944-4.805-6.219c-1.334-2.273-2.364-4.723-3.088-7.347
				C58.133,251,57.77,248.264,57.77,245.409z M69.438,245.33c0,2.718,0.491,5.262,1.473,7.627c0.982,2.37,2.329,4.43,4.036,6.18
				c1.71,1.749,3.728,3.136,6.056,4.158c2.328,1.021,4.852,1.532,7.571,1.532c2.689,0,5.201-0.511,7.529-1.532
				c2.328-1.022,4.352-2.409,6.074-4.158c1.722-1.75,3.077-3.81,4.059-6.18c0.979-2.365,1.474-4.909,1.474-7.627
				c0-2.692-0.494-5.223-1.474-7.591c-0.982-2.369-2.337-4.434-4.059-6.197c-1.722-1.763-3.746-3.155-6.074-4.177
				c-2.328-1.024-4.84-1.536-7.529-1.536c-2.719,0-5.243,0.512-7.571,1.536c-2.329,1.021-4.346,2.414-6.056,4.177
				c-1.707,1.764-3.053,3.828-4.036,6.197C69.929,240.107,69.438,242.638,69.438,245.33z"/>
			<path fill="#63B132" d="M121.434,273.831c0.133-0.538,0.29-1.035,0.464-1.494c0.175-0.458,0.329-0.875,0.465-1.251l21.757-54.178
				c0.083-0.295,0.305-0.625,0.669-0.99c0.363-0.362,0.854-0.544,1.474-0.544h6.499c0.646,0,1.109,0.162,1.391,0.485
				c0.284,0.32,0.491,0.604,0.628,0.846l1.331,3.151l21.319,53.327c0,0.081,0.018,0.222,0.059,0.426
				c0.039,0.201,0.06,0.368,0.06,0.503c0,0.81-0.592,1.212-1.778,1.212h-7.949c-0.595,0-1.051-0.122-1.373-0.364
				c-0.325-0.241-0.595-0.617-0.811-1.129l-0.725-1.857c-0.512-1.29-1.024-2.586-1.536-3.876c-0.512-1.291-1.006-2.596-1.491-3.917
				h-24.91c-0.698,1.885-1.379,3.655-2.039,5.311c-0.656,1.652-1.219,3.102-1.674,4.34c-0.376,0.996-1.077,1.493-2.098,1.493h-8.077
				c-0.509,0-0.92-0.094-1.23-0.281c-0.308-0.188-0.464-0.472-0.464-0.848C121.393,274.032,121.407,273.911,121.434,273.831z
				 M149.531,230.755c-1.452,3.715-2.899,7.563-4.34,11.546c-1.438,3.983-2.885,7.818-4.337,11.506h17.194L149.531,230.755z"/>
			<path fill="#63B132" d="M220.26,231.361c-0.35,0-0.672-0.089-0.971-0.263c-0.296-0.175-0.63-0.41-1.009-0.706l-0.08-0.04
				c-0.512-0.512-1.171-1.076-1.979-1.696c-0.808-0.618-1.71-1.196-2.704-1.736c-0.997-0.539-2.065-0.996-3.207-1.372
				c-1.148-0.377-2.311-0.566-3.494-0.566c-1.509,0-2.841,0.169-3.997,0.505c-1.157,0.339-2.127,0.796-2.908,1.372
				c-0.778,0.58-1.373,1.26-1.775,2.039c-0.402,0.781-0.604,1.615-0.604,2.504c0,0.969,0.302,1.816,0.908,2.543
				c0.604,0.728,1.426,1.371,2.462,1.938c1.035,0.565,2.228,1.085,3.57,1.556c1.347,0.47,2.761,0.935,4.24,1.392
				c1.695,0.512,3.378,1.063,5.047,1.655s3.264,1.259,4.784,1.998c1.518,0.741,2.94,1.561,4.257,2.463
				c1.319,0.902,2.456,1.938,3.414,3.108c0.953,1.172,1.71,2.477,2.261,3.917c0.55,1.439,0.825,3.06,0.825,4.864
				c0,2.932-0.592,5.584-1.775,7.952c-1.186,2.368-2.819,4.394-4.905,6.077c-2.085,1.682-4.535,2.973-7.346,3.875
				c-2.813,0.901-5.834,1.353-9.064,1.353c-2.071,0-4.13-0.244-6.175-0.727c-2.047-0.483-4.012-1.17-5.896-2.06
				c-1.885-0.889-3.665-1.958-5.349-3.211c-1.681-1.25-3.184-2.657-4.5-4.219v0.043l-0.083-0.163
				c-0.592-0.672-0.888-1.291-0.888-1.856c0-0.297,0.083-0.577,0.246-0.848c0.159-0.27,0.402-0.564,0.725-0.889l1.331-1.333
				c0.405-0.348,0.835-0.739,1.293-1.169c0.456-0.432,0.914-0.82,1.373-1.171c0.455-0.35,0.882-0.646,1.27-0.888
				c0.39-0.244,0.707-0.364,0.949-0.364c0.379,0,0.728,0.12,1.051,0.364c0.322,0.241,0.591,0.47,0.808,0.687l0.162,0.161h-0.041
				c0.94,0.888,1.997,1.736,3.168,2.541c1.172,0.81,2.373,1.529,3.612,2.161c1.24,0.632,2.471,1.13,3.695,1.493
				s2.373,0.544,3.45,0.544c1.481,0,2.866-0.188,4.159-0.563c1.293-0.377,2.408-0.907,3.35-1.595
				c0.943-0.687,1.683-1.515,2.222-2.482c0.538-0.971,0.808-2.046,0.808-3.23c0-1.184-0.35-2.198-1.051-3.046
				c-0.701-0.849-1.615-1.589-2.745-2.222c-1.13-0.632-2.402-1.178-3.813-1.635c-1.414-0.459-2.834-0.888-4.261-1.293
				c-3.283-0.994-6.156-2.072-8.618-3.229c-2.464-1.156-4.515-2.455-6.156-3.896c-1.642-1.439-2.873-3.054-3.695-4.845
				c-0.819-1.789-1.23-3.801-1.23-6.034c0-2.505,0.506-4.784,1.515-6.843c1.009-2.06,2.443-3.821,4.299-5.289
				c1.857-1.467,4.092-2.61,6.704-3.432c2.609-0.819,5.526-1.23,8.76-1.23c2.447,0,4.938,0.383,7.468,1.15
				c2.529,0.767,4.869,1.824,7.023,3.169c0.645,0.404,1.305,0.861,1.979,1.371c0.671,0.512,1.289,1.031,1.857,1.555
				c0.565,0.525,1.026,1.037,1.391,1.536c0.364,0.496,0.547,0.92,0.547,1.271c0,0.322-0.082,0.652-0.245,0.989
				c-0.16,0.337-0.364,0.639-0.604,0.907l-1.21,1.293v-0.042c-0.405,0.432-0.822,0.876-1.252,1.334
				c-0.432,0.457-0.86,0.867-1.293,1.231c-0.432,0.363-0.822,0.665-1.171,0.908C220.798,231.239,220.502,231.361,220.26,231.361z"/>
			<path fill="#63B132" d="M235.638,217.15c0-0.537,0.175-0.971,0.524-1.291c0.352-0.323,0.795-0.485,1.334-0.485h42.47
				c0.485,0,0.923,0.149,1.311,0.443c0.391,0.298,0.615,0.741,0.668,1.333v7.063c0,0.54-0.168,1.011-0.506,1.414
				c-0.337,0.404-0.828,0.605-1.473,0.605h-15.34v47.232c0,0.485-0.169,0.917-0.507,1.293c-0.337,0.377-0.798,0.565-1.393,0.565
				h-7.95c-0.485,0-0.926-0.177-1.313-0.525c-0.391-0.35-0.586-0.793-0.586-1.333v-47.232h-15.381c-0.539,0-0.982-0.167-1.334-0.505
				c-0.35-0.337-0.524-0.84-0.524-1.515V217.15z"/>
		</g>
	</g>
</g>
</svg>
